<?xml version="1.0" encoding="utf-8"?>
<!-- Generator: Adobe Illustrator 24.0.0, SVG Export Plug-In . SVG Version: 6.00 Build 0)  -->
<svg version="1.1" id="Layer_1" xmlns="http://www.w3.org/2000/svg" xmlns:xlink="http://www.w3.org/1999/xlink" x="0px" y="0px"
	 viewBox="0 0 800 600" style="enable-background:new 0 0 800 600;" xml:space="preserve">
<style type="text/css">
	.st0{fill-rule:evenodd;clip-rule:evenodd;fill:#E5301D;}
</style>
<g>
	<path class="st0" d="M571.4,177.6c0-5.2-4.3-9.8-9.8-9.8h-14.4c-5.2,0-9.5,4.6-9.5,9.8v150.8c0,5.5,4.3,9.8,9.5,9.8h14.4
		c5.5,0,9.8-4.6,9.8-9.8V177.6L571.4,177.6z"/>
	<path class="st0" d="M589.8,181.6v7.4c0,2.8,2.5,5.2,5.2,5.2h99.5c4.6,0,8.3-3.7,8.3-8.3v-12c0-4.6-3.7-8.6-8.3-8.3
		c0,0-96.1,9.5-99.2,9.8C591.7,175.8,589.8,178.9,589.8,181.6L589.8,181.6z"/>
	<path class="st0" d="M509.4,338.2c-24.9,0-40.5-18.7-40.5-39.6v-60.5h-7.1c-3.7,0-6.8-3.1-6.8-6.8v-10.1c0-3.7,3.1-6.8,6.8-6.8h7.1
		v-37.2c0-5.2,4.3-9.2,9.5-9.2h14.1c5.2,0,9.5,4,9.5,9.5v36.9h21.8c4,0,7.1,3.1,7.1,6.8v10.1c0,3.7-3.1,6.8-7.1,6.8H502V294
		c0,11.1,6.8,18.4,18.4,18.4h2.1c4,0,7.4,3.4,7.4,7.4v11.1c0,4-3.4,7.4-7.4,7.4H509.4L509.4,338.2z"/>
	<path class="st0" d="M339.8,274.4c0-31.9-19-64.2-62-64.2c-40.2,0-62.6,31.3-62.6,64.2c0,35.3,24.3,66,62.6,66
		c26.7,0,52.5-13.8,57.4-36.9c0.9-3.1-1.2-7.1-5.5-7.1h-19c-3.4,0-6.1,1.8-8,4.3c-5.2,7.7-13.2,12-24.9,12
		c-16.6,0-27.9-12.9-28.9-27.3h80.2C336.8,285.4,339.8,281.4,339.8,274.4L339.8,274.4z M249.3,260.5c1.2-14.1,13.5-24.6,28.6-24.6
		c14.7,0,27.3,10.4,28.6,24.6H249.3L249.3,260.5z"/>
	<path class="st0" d="M706.2,274.4c0-31.9-19-64.2-62.3-64.2c-39.9,0-62.3,31.3-62.3,64.2c0,35.3,24,66,62.6,66
		c26.4,0,52.5-13.8,57.4-36.9c0.6-3.1-1.5-7.1-5.8-7.1H677c-3.4,0-6.4,1.8-8,4.3c-5.5,7.7-13.2,12-25.2,12
		c-16.3,0-27.9-12.9-28.9-27.3h80.5C702.8,285.4,706.2,281.4,706.2,274.4L706.2,274.4z M615.3,260.5c1.2-14.1,13.8-24.6,28.6-24.6
		c14.7,0,27.6,10.4,28.9,24.6H615.3L615.3,260.5z"/>
	<path class="st0" d="M441.8,169.6H181.7c-6.1,0-10.7,4.9-10.7,10.7l0.9,102.3c0,0-56.2-101.3-59.3-106.6c-2.5-4.9-8.6-9.2-16.6-9.2
		H74.5c-5.8,0-10.7,4.6-10.7,10.7v149.9c0,5.8,4.9,10.7,10.7,10.7h13.8c5.8,0,10.7-4.9,10.7-10.7l-0.9-105.3
		c0,0,56.5,102.6,59,106.6c3.4,5.5,8.9,9.5,16.9,9.5h19.7c5.8,0,10.7-4.9,10.7-10.7V195.1h237.4c4.3,0,7.4-3.4,7.4-7.4V177
		C449.2,173,446.1,169.6,441.8,169.6L441.8,169.6z"/>
	<path class="st0" d="M399.7,234.7c11.4,0,20,4,23,11.1c1.2,3.7,4.3,4.3,8,4.3h15.7c2.5,0,5.5-2.5,5.5-5.5
		c0-18.1-21.5-34.4-52.2-34.4c-31.6,0-52.2,15-52.2,39c0,18.4,14.4,29.2,32.2,34.1c8,2.2,21.8,5.5,28.6,7.4
		c7.4,1.8,13.8,4,13.8,10.1c0,9.8-10.1,13.2-21.5,13.2c-10.7,0-21.5-4.6-24.6-12.3c-1.8-4.6-4.9-5.2-9.5-5.2h-16
		c-2.8,0-5.8,2.5-5.8,6.1v1.8c0,17.5,23.3,35.9,55.9,35.9c23,0,55-9.5,55-40.2c0-18.1-12-30.4-31.3-35.3c-7.7-1.8-26.1-6.4-29.8-7.7
		c-7.4-1.8-13.8-4-13.8-10.1C380.7,237.8,389.3,234.7,399.7,234.7L399.7,234.7z"/>
	<path class="st0" d="M65,378.2c269.9-85.1,476.3,66.3,637.8-27c-105,146.8-433.6-45.1-637.8,82V378.2L65,378.2z"/>
	<path class="st0" d="M712.3,323.5c0-8.9,7.1-15.4,15.4-15.4c8.3,0,15.7,6.4,15.7,15.4c0,8.9-7.4,15.4-15.7,15.4
		C719.4,338.8,712.3,332.4,712.3,323.5L712.3,323.5z M727.7,336.1c7.1,0,12.6-5.2,12.6-12.6c0-7.4-5.5-12.6-12.6-12.6
		c-6.8,0-12.3,5.2-12.3,12.6C715.4,330.9,720.9,336.1,727.7,336.1L727.7,336.1z M724.6,332.4h-2.8v-17.8h6.8c4.3,0,6.1,1.5,6.1,5.2
		c0,3.1-1.8,4.3-4.6,4.6l5.2,8h-3.1l-4.6-7.7h-3.1V332.4L724.6,332.4z M727.7,322.3c2.5,0,4.3,0,4.3-2.8c0-2.2-1.8-2.5-3.7-2.5h-3.7
		v5.2H727.7L727.7,322.3z"/>
</g>
</svg>
